# xmcd
#
# Track frame offsets:
#	150
#	19629
#	45043
#	63125
#	77094
#	88510
#
# Disc length: 1415 seconds
# Revision: 0
# Processed by: cddbd v1.5.2PL0 Copyright (c) Steve Scherf et al.
# Submitted via: dBpowerAMP V12.0
#
DISCID=32058506
DTITLE=Various Artist - Blue Again
DYEAR=2017
DGENRE=Blues
TTITLE0=Janiva Magness Feat. Kid Ramos - I Can Tell
TTITLE1=Janiva Magness - I Love You More Than You'll Ever Know
TTITLE2=Janiva Magness Feat. Sugaray Rayford - If I Can't Have You
TTITLE3=Janiva Magness - Tired Of Walking
TTITLE4=Janiva Magness Feat. T.J. Norton - Buck
TTITLE5=Janiva Magness - Pack It Up
EXTD=
EXTT0=
EXTT1=
EXTT2=
EXTT3=
EXTT4=
EXTT5=
PLAYORDER=
